# xmcd CD database file
#
# Track frame offsets:
#	150
#	19350
#	40192
#	59335
#
# Disc length: 1068 seconds
#
# Revision: 0
# Processed by: cddbd v1.5.1PL0 Copyright (c) Steve Scherf et al.
# Submitted via: CDex 1.51
#
DISCID=2f042a04
DTITLE=デリカテッセン - Steppin'
DYEAR=2005
DGENRE=JPop
TTITLE0=Steppin'
TTITLE1=Oh! Payday
TTITLE2=Steppin' (Instrumental)
TTITLE3=Oh! Payday (Instrumental)
EXTD=YEAR: 2005
EXTT0=
EXTT1=
EXTT2=
EXTT3=
PLAYORDER=
